<svg width="40" height="40" viewBox="0 0 40 40" fill="none" xmlns="http://www.w3.org/2000/svg">
<rect width="40" height="40" rx="5" fill="#1A5CFF"/>
<path d="M28.8045 7.72944C29.9817 11.4195 30.8194 15.0757 31.3174 18.6979C31.8155 22.2974 32.0532 26.5648 32.0305 31.5H26.7331V30.1417C26.7331 26.2026 26.6425 23.0105 26.4614 20.5655C26.2803 18.0979 25.9521 15.6303 25.4766 13.1627C24.5485 15.7888 23.8014 18.0866 23.2354 20.0562C22.6695 22.0257 22.0356 24.5952 21.3338 27.7646H17.1909C16.557 24.6405 15.9684 22.0936 15.4251 20.1241C14.9044 18.1545 14.18 15.8567 13.2518 13.2306C12.7764 15.7662 12.4368 18.3356 12.233 20.9391C12.0519 23.5199 11.9274 27.0402 11.8595 31.5H6.6979C6.76581 26.4742 7.03748 22.1616 7.51289 18.562C8.01094 14.9625 8.81461 11.3516 9.9239 7.72944H15.7647C16.8513 10.6725 17.621 12.891 18.0738 14.3852C18.5266 15.8567 18.9114 17.4527 19.2284 19.1733C19.6359 17.4527 20.0773 15.8454 20.5527 14.3512C21.0508 12.8571 21.8545 10.6498 22.9638 7.72944H28.8045Z" fill="#D9D9D9"/>
</svg>
