<svg width="205" height="205" viewBox="0 0 205 205" fill="none" xmlns="http://www.w3.org/2000/svg">
<path d="M138.717 31.1763H66.2838C45.1859 31.1763 28.1025 48.345 28.1025 69.3575V149.735C28.1025 170.747 45.2713 187.916 66.2838 187.916H138.632C159.73 187.916 176.813 170.747 176.813 149.735V69.3575C176.898 48.2596 159.73 31.1763 138.717 31.1763Z" fill="#23252F"/>
<path d="M122.571 17.0833H82.425C73.5417 17.0833 66.2812 24.2583 66.2812 33.1416V41.1708C66.2812 50.0541 73.4563 57.2291 82.3396 57.2291H122.571C131.454 57.2291 138.629 50.0541 138.629 41.1708V33.1416C138.715 24.2583 131.454 17.0833 122.571 17.0833Z" fill="#B01E1E"/>
<path d="M124.114 133.42L111.728 121.034L123.687 109.076C126.164 106.599 126.164 102.499 123.687 100.022C121.21 97.5449 117.11 97.5449 114.633 100.022L102.674 111.98L90.2888 99.5949C87.8117 97.1178 83.7117 97.1178 81.2346 99.5949C78.7576 102.072 78.7576 106.172 81.2346 108.649L93.6201 121.034L80.893 133.762C78.4159 136.239 78.4159 140.339 80.893 142.816C82.1742 144.097 83.7971 144.695 85.42 144.695C87.043 144.695 88.6659 144.097 89.9471 142.816L102.674 130.089L115.06 142.474C116.341 143.755 117.964 144.353 119.587 144.353C121.21 144.353 122.833 143.755 124.114 142.474C126.591 139.997 126.591 135.982 124.114 133.42Z" fill="#fff"/>
</svg>
